<?xml version="1.0" encoding="utf-8"?>
<!-- Generator: Adobe Illustrator 22.0.0, SVG Export Plug-In . SVG Version: 6.00 Build 0)  -->
<svg version="1.1" id="图层_1" xmlns="http://www.w3.org/2000/svg" xmlns:xlink="http://www.w3.org/1999/xlink" x="0px" y="0px"
	 viewBox="0 0 18 16" style="enable-background:new 0 0 18 16;" xml:space="preserve">
<style type="text/css">
	.st0{fill:none;}
	.st1{fill:#FFA900;}
	.st2{fill:none;stroke:#FFA900;stroke-width:2;stroke-linecap:round;stroke-linejoin:round;stroke-miterlimit:10;}
	.st3{fill:none;stroke:#666666;stroke-width:2;stroke-linecap:round;stroke-linejoin:round;stroke-miterlimit:10;}
</style>
<rect y="0" class="st0" width="18" height="16"/>
<polyline class="st0" points="2,15.4 2,16 2.1,16 "/>
<path class="st0" d="M2,15.4c0,0.2,0,0.4,0.1,0.6"/>
<g>
	<circle class="st1" cx="5" cy="5.7" r="1.7"/>
	<polyline class="st2" points="17,6.4 17,14.3 9.1,14.3 	"/>
	<line class="st2" x1="8.9" y1="14.3" x2="1.1" y2="14.3"/>
	<line class="st3" x1="9.1" y1="14.3" x2="8.9" y2="14.3"/>
	<polyline class="st2" points="17,6.4 17,1.7 1,1.7 1,13.7 	"/>
	<path class="st2" d="M8.9,14.3C9,14.1,9,13.9,9,13.7c0-2.2-1.8-4-4-4s-4,1.8-4,4"/>
	<path class="st2" d="M17,6.4c-0.4-0.1-0.8-0.1-1.1-0.1C12.1,6.3,9,9.4,9,13.1c0,0.4,0,0.8,0.1,1.1"/>
</g>
</svg>
